<?xml version="1.0" encoding="utf-8"?>
<!-- Generator: Adobe Illustrator 26.5.0, SVG Export Plug-In . SVG Version: 6.00 Build 0)  -->
<svg version="1.1" id="Layer_1" xmlns="http://www.w3.org/2000/svg" xmlns:xlink="http://www.w3.org/1999/xlink" x="0px" y="0px"
	 viewBox="0 0 715.46 315.96" style="enable-background:new 0 0 715.46 315.96;" xml:space="preserve">
<style type="text/css">
	.st0{fill:none;stroke:#F26722;stroke-width:0.25;stroke-miterlimit:10;}
	.st1{fill:#01416F;}
	.st2{fill:#F37021;}
	.st3{fill:none;stroke:#99CCCC;stroke-width:0.5;stroke-miterlimit:10;}
</style>
<path class="st0" d="M617.46,104.25"/>
<path class="st1" d="M69.85,140l5.3-25.18h22.53c1.77-8.83,3.71-16.56,5.83-23.19c2.12-6.63,5.04-12.23,8.75-16.83
	c3.71-4.59,8.61-8.04,14.71-10.33c6.1-2.29,14.09-3.45,23.98-3.45c4.06,0,8.17,0.18,12.32,0.53c4.15,0.36,8.26,0.89,12.32,1.59
	l-5.83,27.03c-1.95-0.17-3.98-0.35-6.1-0.53c-2.12-0.18-4.15-0.27-6.09-0.27c-4.77,0-8.39,0.58-10.87,1.72
	c-2.48,1.15-4.37,2.83-5.7,5.04c-1.33,2.21-2.34,4.86-3.05,7.95c-0.71,3.09-1.59,6.67-2.65,10.73h26.77l-5.3,25.18h-27.03
	l-23.59,111.83H68.52L92.11,140H69.85z"/>
<path class="st1" d="M197.5,114.82l-5.56,24.65l0.53,0.53c4.24-9.54,10.64-16.74,19.21-21.6c8.57-4.86,17.89-7.29,27.96-7.29
	c3.89,0,7.77,0.27,11.66,0.79l-7.68,36.57c-2.65-0.53-5.3-1.06-7.95-1.59c-2.65-0.53-5.3-0.79-7.95-0.79
	c-7.25,0-13.38,1.24-18.42,3.71c-5.04,2.48-9.28,5.83-12.72,10.07c-3.45,4.24-6.19,9.06-8.22,14.44c-2.03,5.39-3.67,11-4.9,16.83
	l-12.72,60.69h-37.37l28.36-137.01H197.5z"/>
<path class="st1" d="M252.27,194.85c0,0.71,0,1.42,0,2.12v3.45c0,7.95,2.47,14.4,7.42,19.35c4.94,4.95,12.54,7.42,22.79,7.42
	c3.71,0,7.02-0.57,9.94-1.72c2.92-1.15,5.48-2.6,7.69-4.37c2.21-1.77,4.15-3.8,5.83-6.1c1.68-2.29,3.22-4.5,4.64-6.62h37.63
	c-3.01,7.78-6.54,14.58-10.6,20.41c-4.07,5.83-8.92,10.73-14.58,14.71c-5.66,3.97-12.24,6.94-19.74,8.88
	c-7.51,1.94-16.21,2.92-26.1,2.92c-9.19,0-17.54-1.24-25.04-3.71c-7.51-2.47-13.91-6.23-19.21-11.26
	c-5.3-5.04-9.41-11.26-12.32-18.68c-2.92-7.42-4.37-16.07-4.37-25.97c0-10.95,1.76-21.51,5.3-31.67
	c3.53-10.16,8.52-19.17,14.97-27.03c6.45-7.86,14.35-14.13,23.72-18.82c9.36-4.68,19.88-7.02,31.54-7.02
	c9.54,0,18.24,1.24,26.1,3.71c7.86,2.48,14.58,6.23,20.14,11.26c5.57,5.04,9.89,11.31,12.99,18.82c3.09,7.51,4.64,16.21,4.64,26.1
	c0,6.72-0.71,13.87-2.12,21.46H252.54C252.36,193.36,252.27,194.15,252.27,194.85z M318.39,158.15c-0.62-3.44-1.81-6.58-3.58-9.41
	c-1.77-2.82-4.33-5.08-7.68-6.76c-3.36-1.68-7.78-2.52-13.25-2.52c-5.3,0-9.98,0.79-14.05,2.39c-4.06,1.59-7.6,3.71-10.6,6.36
	c-3.01,2.65-5.53,5.74-7.55,9.28c-2.03,3.54-3.76,7.25-5.17,11.13h62.81C319.32,165.09,319.01,161.59,318.39,158.15z"/>
<path class="st1" d="M387.25,194.85c0,0.71,0,1.42,0,2.12v3.45c0,7.95,2.47,14.4,7.42,19.35c4.94,4.95,12.54,7.42,22.79,7.42
	c3.71,0,7.02-0.57,9.94-1.72c2.92-1.15,5.48-2.6,7.69-4.37c2.21-1.77,4.15-3.8,5.83-6.1c1.68-2.29,3.22-4.5,4.64-6.62h37.63
	c-3.01,7.78-6.54,14.58-10.6,20.41c-4.07,5.83-8.92,10.73-14.58,14.71c-5.66,3.97-12.24,6.94-19.74,8.88
	c-7.51,1.94-16.21,2.92-26.1,2.92c-9.19,0-17.54-1.24-25.04-3.71c-7.51-2.47-13.91-6.23-19.21-11.26
	c-5.3-5.04-9.41-11.26-12.32-18.68c-2.92-7.42-4.37-16.07-4.37-25.97c0-10.95,1.76-21.51,5.3-31.67
	c3.53-10.16,8.52-19.17,14.97-27.03c6.45-7.86,14.35-14.13,23.72-18.82c9.36-4.68,19.88-7.02,31.54-7.02
	c9.54,0,18.24,1.24,26.1,3.71c7.86,2.48,14.58,6.23,20.14,11.26c5.57,5.04,9.89,11.31,12.99,18.82c3.09,7.51,4.64,16.21,4.64,26.1
	c0,6.72-0.71,13.87-2.12,21.46H387.51C387.33,193.36,387.25,194.15,387.25,194.85z M453.37,158.15c-0.62-3.44-1.81-6.58-3.58-9.41
	c-1.77-2.82-4.33-5.08-7.68-6.76c-3.36-1.68-7.78-2.52-13.25-2.52c-5.3,0-9.98,0.79-14.05,2.39c-4.06,1.59-7.6,3.71-10.6,6.36
	c-3.01,2.65-5.53,5.74-7.55,9.28c-2.03,3.54-3.76,7.25-5.17,11.13h62.81C454.3,165.09,453.99,161.59,453.37,158.15z"/>
<path class="st1" d="M578.51,235.04c-4.24,7.42-9.07,12.07-16.4,15.33c-7.33,3.27-15.24,4.9-23.72,4.9
	c-16.61,0-29.46-4.81-38.56-14.44c-9.1-9.63-13.65-22.74-13.65-39.35c0-11.31,1.5-22.35,4.5-33.13c3-10.77,7.59-20.41,13.78-28.89
	c6.18-8.48,13.95-15.32,23.32-20.54c9.36-5.21,20.41-7.82,33.13-7.82c7.95,0,15.59,1.77,22.92,5.3c7.33,3.54,12.5,9.1,15.5,16.7
	h0.53l15.11-70.49h37.63l-40.02,189.22l-37.64,0L578.51,235.04L578.51,235.04z"/>
<g>
	<polygon class="st2" points="457.47,192.43 503.49,205.93 559.53,155.37 516.93,209.87 569.64,225.34 591.82,121.83 	"/>
	<polygon class="st2" points="516.93,209.87 537.8,215.97 516.93,245.92 	"/>
</g>
<path class="st3" d="M604.22,62.61"/>
</svg>
